<svg xmlns="http://www.w3.org/2000/svg" viewBox="0 0 4.91 9.475">
    <defs>
        <style>
            .cls-1{fill:#616161}
        </style>
    </defs>
    <g id="dollar-symbol">
        <path id="Path_963" d="M120.425 4.3a11.409 11.409 0 0 0-1.159-.524 2.6 2.6 0 0 1-.636-.356.553.553 0 0 1 .137-.984 1.117 1.117 0 0 1 .389-.08 2.956 2.956 0 0 1 1.464.29c.231.112.307.076.386-.164s.151-.513.227-.769a.269.269 0 0 0-.174-.358 3.722 3.722 0 0 0-.924-.276c-.419-.065-.419-.067-.421-.487 0-.593 0-.593-.6-.593h-.258c-.278.008-.325.057-.333.337v.378c0 .372 0 .366-.36.5a1.985 1.985 0 0 0-1.45 1.839 1.885 1.885 0 0 0 1.067 1.8 11.794 11.794 0 0 0 1.333.6 1.98 1.98 0 0 1 .485.286.665.665 0 0 1-.159 1.166 1.6 1.6 0 0 1-.855.112 3.818 3.818 0 0 1-1.3-.389c-.241-.125-.311-.092-.393.168-.07.225-.133.452-.2.679-.084.305-.053.378.239.521a4.162 4.162 0 0 0 1.174.337c.317.051.327.065.331.393v.448a.266.266 0 0 0 .286.3h.66a.251.251 0 0 0 .272-.284c0-.2.01-.409 0-.613a.323.323 0 0 1 .28-.368 2.212 2.212 0 0 0 1.153-.74 2.08 2.08 0 0 0-.661-3.169z" class="cls-1" data-name="Path 963" transform="translate(-116.652)"/>
    </g>
</svg>
