<svg xmlns="http://www.w3.org/2000/svg" viewBox="0 0 21.099 21.098">
    <defs>
        <style>
            .cls-1{fill:#fff}
        </style>
    </defs>
    <g id="Group_1834" data-name="Group 1834">
        <path id="Path_1431" d="M50.153 8.106a3.463 3.463 0 0 1-1.206 1.206v.3a6.713 6.713 0 0 1-6.731 6.731 6.409 6.409 0 0 1-3.616-1.104h.6a4.862 4.862 0 0 0 2.913-1 2.389 2.389 0 0 1-2.21-1.607h.4a1.274 1.274 0 0 0 .6-.1A2.365 2.365 0 0 1 39 10.215a2.025 2.025 0 0 0 1.105.3A2.415 2.415 0 0 1 39 8.507a2.675 2.675 0 0 1 .3-1.207 6.945 6.945 0 0 0 4.923 2.512c0-.2-.1-.3-.1-.5A2.415 2.415 0 0 1 48.245 7.6a4.736 4.736 0 0 0 1.507-.6 2.219 2.219 0 0 1-1 1.306 2.31 2.31 0 0 0 1.401-.2z" class="cls-1" data-name="Path 1431" transform="translate(-33.778 -1.174)"/>
        <path id="Path_1432" d="M44.349 22.3A10.549 10.549 0 1 1 54.9 11.749 10.547 10.547 0 0 1 44.349 22.3zm0-20.6A10.046 10.046 0 1 0 54.4 11.749 10.076 10.076 0 0 0 44.349 1.7zm-2.11 15.07a7.614 7.614 0 0 1-3.818-1.105l-1-.7 1.206.1a5.048 5.048 0 0 0 2.713-.5 2.871 2.871 0 0 1-1.708-1.708l-.1-.5h.2a2.529 2.529 0 0 1-.9-2.009v-.1l.2-.2.2.1a2.307 2.307 0 0 1-.4-1.407 2.019 2.019 0 0 1 .4-1.306l.2-.4.3.3a6.19 6.19 0 0 0 4.32 2.311v-.2a2.594 2.594 0 0 1 2.612-2.612 2.888 2.888 0 0 1 1.808.7 6.976 6.976 0 0 0 1.306-.5l.7-.4-.4.7c-.1.2-.2.5-.3.7.1 0 .2-.1.3-.1l.9-.4-.6.8a4.283 4.283 0 0 1-1.105 1.206v.2a6.977 6.977 0 0 1-7.034 7.032zm-2.512-1.105a7 7 0 0 0 2.512.5 6.4 6.4 0 0 0 6.43-6.43v-.5l.1-.1c.2-.1.3-.3.5-.4-.2 0-.3.1-.5.1l-1.407.2 1.206-.7a1 1 0 0 0 .5-.4 1.863 1.863 0 0 1-.7.2h-.2l-.1-.1a2.065 2.065 0 0 0-3.617 1.407.906.906 0 0 0 .1.5l.1.4h-.4a7.431 7.431 0 0 1-4.822-2.21 1.49 1.49 0 0 0-.1.7 1.974 1.974 0 0 0 .9 1.708l.8.6h-1c-.2 0-.5-.1-.7-.1a2.181 2.181 0 0 0 1.607 1.607l1.206.2-1.105.1a1.49 1.49 0 0 1-.7.1 2.072 2.072 0 0 0 1.708 1h.8l-.6.5a4.743 4.743 0 0 1-2.518 1.12z" class="cls-1" data-name="Path 1432" transform="translate(-33.8 -1.2)"/>
    </g>
</svg>
