<svg xmlns="http://www.w3.org/2000/svg" viewBox="0 0 21.099 21.098">
    <defs>
        <style>
            .cls-1{fill:#fff}
        </style>
    </defs>
    <g id="Group_1836" data-name="Group 1836">
        <path id="Path_1443" d="M179.449 21.2A10.549 10.549 0 1 1 190 10.649 10.547 10.547 0 0 1 179.449 21.2zm0-20.6A10.046 10.046 0 1 0 189.5 10.649 10.076 10.076 0 0 0 179.449.6z" class="cls-1" data-name="Path 1443" transform="translate(-168.9 -.1)"/>
        <path id="Path_1444" d="M184.55 5.7L173.9 9.819a.387.387 0 0 0 0 .7l2.713.8 1 3.215a.526.526 0 0 0 .8.2l1.406-1.407 2.713 2.009a.6.6 0 0 0 .9-.3l1.808-8.64c.114-.496-.288-.896-.69-.696zm-1.406 1.909l-4.923 4.32a.351.351 0 0 0-.1.2l-.2 1.708c0 .1-.1.1-.1 0l-.8-2.512a.369.369 0 0 1 .1-.3l5.827-3.617c.196-.1.397.101.196.201z" class="cls-1" data-name="Path 1444" transform="translate(-168.878 -.074)"/>
    </g>
</svg>
