<svg xmlns="http://www.w3.org/2000/svg" viewBox="0 0 21.098 21.098">
    <defs>
        <style>
            .cls-1{fill:#fff}
        </style>
    </defs>
    <g id="Group_1835" data-name="Group 1835">
        <path id="Path_1433" d="M83.954 10.522v4.822a2.337 2.337 0 0 1-2.311 2.311h-7.132a2.337 2.337 0 0 1-2.311-2.311V8.111A2.337 2.337 0 0 1 74.511 5.8h7.133a2.337 2.337 0 0 1 2.311 2.311zm-1.105 4.822v-4.822h-1.708a2.549 2.549 0 0 1 .2 1.206 3.215 3.215 0 1 1-6.43 0 5.043 5.043 0 0 1 .2-1.206h-1.705v4.822a1.115 1.115 0 0 0 1.105 1.105h7.133a1.14 1.14 0 0 0 1.205-1.105zm-.2-6.128V7.207h-2.01v2.009zm-2.512 2.512a1.6 1.6 0 0 0-.4-1.206 2.237 2.237 0 0 0-1.708-.9 1.974 1.974 0 0 0-1.708.9 2.154 2.154 0 0 0-.4 1.206 2.122 2.122 0 0 0 2.11 2.11 2.19 2.19 0 0 0 2.106-2.111z" class="cls-1" data-name="Path 1433" transform="translate(-67.579 -1.179)"/>
        <path id="Path_1434" d="M78.149 22.3A10.549 10.549 0 1 1 88.7 11.749 10.547 10.547 0 0 1 78.149 22.3zm0-20.6A10.046 10.046 0 1 0 88.2 11.749 10.076 10.076 0 0 0 78.149 1.7z" class="cls-1" data-name="Path 1434" transform="translate(-67.6 -1.2)"/>
    </g>
</svg>
