<svg xmlns="http://www.w3.org/2000/svg" viewBox="0 0 148 58">
    <defs>
        <style>
            .cls-1{fill:#fff}.cls-2{fill:#212121}.cls-3{filter:url(#Rectangle_486)}
        </style>
        <filter id="Rectangle_486" width="148" height="58" x="0" y="0" filterUnits="userSpaceOnUse">
            <feOffset dy="3"/>
            <feGaussianBlur result="blur" stdDeviation="3"/>
            <feFlood flood-opacity=".161"/>
            <feComposite in2="blur" operator="in"/>
            <feComposite in="SourceGraphic"/>
        </filter>
    </defs>
    <g id="Group_4695" data-name="Group 4695" transform="translate(-877 7122)">
        <g class="cls-3" transform="translate(877 -7122)">
            <rect id="Rectangle_486-2" width="130" height="40" class="cls-1" data-name="Rectangle 486" rx="20" transform="translate(9 6)"/>
        </g>
        <g id="Group_1819" data-name="Group 1819" transform="translate(587.556 -8284.066)">
            <g id="Group_1825" data-name="Group 1825" transform="translate(304 1170)">
                <g id="Group_1821" data-name="Group 1821">
                    <g id="Group_1820" data-name="Group 1820" transform="translate(11.444 5.467)">
                        <g id="Group_1819-2" data-name="Group 1819">
                            <path id="Path_1671" d="M32.522 23.089a5.179 5.179 0 0 1 2.467-4.333 5.491 5.491 0 0 0-4.133-2.267c-1.733-.2-3.467 1.067-4.333 1.067-.933 0-2.267-1-3.733-1a5.455 5.455 0 0 0-4.667 2.867c-2 3.467-.533 8.6 1.4 11.4.933 1.4 2.067 2.933 3.6 2.867 1.467-.067 2-.933 3.733-.933s2.267.933 3.733.867c1.533 0 2.533-1.4 3.467-2.8a13.581 13.581 0 0 0 1.6-3.2 4.769 4.769 0 0 1-3.134-4.535z" class="cls-2" data-name="Path 1671" transform="translate(-17.166 -10.956)"/>
                            <path id="Path_1672" d="M34.191 11.867A4.773 4.773 0 0 0 35.324 8.2a5.27 5.27 0 0 0-3.333 1.733 4.959 4.959 0 0 0-1.2 3.533 4.074 4.074 0 0 0 3.4-1.599z" class="cls-2" data-name="Path 1672" transform="translate(-21.702 -8.2)"/>
                        </g>
                    </g>
                </g>
                <g id="Group_1824" data-name="Group 1824" transform="translate(39.267 5.067)">
                    <g id="Group_1822" data-name="Group 1822">
                        <path id="Path_1673" d="M59.033 8.133a11.061 11.061 0 0 1 1.6-.133 3.255 3.255 0 0 1 2.333.733 2.568 2.568 0 0 1 .8 2.067 2.917 2.917 0 0 1-.867 2.267 3.689 3.689 0 0 1-2.6.867 8.949 8.949 0 0 1-1.4-.067V8.133zm.8 5.133a2.28 2.28 0 0 0 .733.067 2.246 2.246 0 0 0 2.467-2.467A2.09 2.09 0 0 0 60.7 8.6c-.4 0-.667.067-.867.067z" class="cls-2" data-name="Path 1673" transform="translate(-58.9 -7.733)"/>
                        <path id="Path_1674" d="M69.333 8.467A.467.467 0 1 1 68.867 8a.456.456 0 0 1 .466.467zm-.867 5.4v-4.2h.734v4.2z" class="cls-2" data-name="Path 1674" transform="translate(-62.067 -7.733)"/>
                        <path id="Path_1675" d="M72.367 11.767a8.5 8.5 0 0 0-.067-1.333h.667v.8h.067a1.34 1.34 0 0 1 1.133-.933h.2v.733H74.1a1.024 1.024 0 0 0-1 1c0 .133-.067.2-.067.333v2.267H72.3v-2.867z" class="cls-2" data-name="Path 1675" transform="translate(-63.367 -8.5)"/>
                        <path id="Path_1676" d="M77.533 12.733A1.363 1.363 0 0 0 79 14.2a2.46 2.46 0 0 0 1.133-.2l.133.533a3.208 3.208 0 0 1-1.4.267 1.978 1.978 0 0 1-2.066-2.133 2.028 2.028 0 0 1 1.933-2.267 1.765 1.765 0 0 1 1.733 2v.333zm2.267-.6a1.124 1.124 0 0 0-1.067-1.267 1.3 1.3 0 0 0-1.2 1.267z" class="cls-2" data-name="Path 1676" transform="translate(-64.867 -8.533)"/>
                        <path id="Path_1677" d="M87.467 14.567a2.447 2.447 0 0 1-1.2.267A1.978 1.978 0 0 1 84.2 12.7a2.118 2.118 0 0 1 2.267-2.2 3.344 3.344 0 0 1 1.067.2l-.2.6a1.513 1.513 0 0 0-.867-.2A1.472 1.472 0 0 0 85 12.7a1.439 1.439 0 0 0 1.467 1.6 2.8 2.8 0 0 0 .933-.2z" class="cls-2" data-name="Path 1677" transform="translate(-67.333 -8.567)"/>
                        <path id="Path_1678" d="M92.167 8.7v1.2h1.067v.6h-1.067v2.267c0 .533.133.8.6.8a.988.988 0 0 0 .467-.067l.067.6a1.673 1.673 0 0 1-.667.133 1 1 0 0 1-.8-.333 1.576 1.576 0 0 1-.267-1.067v-2.266H90.9v-.6h.667V8.9z" class="cls-2" data-name="Path 1678" transform="translate(-69.567 -7.967)"/>
                        <path id="Path_1679" d="M100.033 8.133a11.061 11.061 0 0 1 1.6-.133 3.255 3.255 0 0 1 2.333.733 2.568 2.568 0 0 1 .8 2.067 2.917 2.917 0 0 1-.867 2.267 3.689 3.689 0 0 1-2.6.867 8.949 8.949 0 0 1-1.4-.067V8.133zm.733 5.133a2.5 2.5 0 0 0 .733.067 2.246 2.246 0 0 0 2.467-2.467 2.09 2.09 0 0 0-2.333-2.266c-.4 0-.667.067-.867.067z" class="cls-2" data-name="Path 1679" transform="translate(-72.567 -7.733)"/>
                        <path id="Path_1680" d="M113.167 12.533a2.028 2.028 0 0 1-2.067 2.2 1.963 1.963 0 0 1-2-2.133 2.032 2.032 0 0 1 2.067-2.2 1.962 1.962 0 0 1 2 2.133zm-3.267.067c0 .933.533 1.6 1.267 1.6s1.267-.667 1.267-1.6c0-.733-.333-1.6-1.267-1.6s-1.267.8-1.267 1.6z" class="cls-2" data-name="Path 1680" transform="translate(-75.633 -8.533)"/>
                        <path id="Path_1681" d="M117.433 10.5l.533 2.133a12.96 12.96 0 0 1 .333 1.333c.067-.4.267-.867.4-1.333l.667-2.133h.667l.667 2.067c.133.533.267.933.4 1.4a12.968 12.968 0 0 1 .333-1.333l.6-2.133h.733l-1.333 4.2h-.667l-.667-2c-.133-.467-.267-.867-.4-1.4-.133.533-.267.933-.4 1.4l-.667 2h-.667L116.7 10.5h.733z" class="cls-2" data-name="Path 1681" transform="translate(-78.167 -8.567)"/>
                        <path id="Path_1682" d="M127.767 11.567a6.1 6.1 0 0 0-.067-1.133h.667l.067.667a1.513 1.513 0 0 1 1.4-.8c.6 0 1.467.333 1.467 1.8v2.533h-.733v-2.4c0-.667-.267-1.267-1-1.267a1 1 0 0 0-1 .8.5.5 0 0 0-.067.333v2.533h-.733z" class="cls-2" data-name="Path 1682" transform="translate(-81.833 -8.5)"/>
                        <path id="Path_1683" d="M135.8 7.6h.733v6.133h-.733z" class="cls-2" data-name="Path 1683" transform="translate(-84.533 -7.6)"/>
                        <path id="Path_1684" d="M143.267 12.533a2.028 2.028 0 0 1-2.067 2.2 1.963 1.963 0 0 1-2-2.133 2.032 2.032 0 0 1 2.067-2.2 1.962 1.962 0 0 1 2 2.133zm-3.333.067c0 .933.533 1.6 1.267 1.6s1.267-.667 1.267-1.6c0-.733-.333-1.6-1.267-1.6s-1.268.8-1.268 1.6z" class="cls-2" data-name="Path 1684" transform="translate(-85.667 -8.533)"/>
                        <path id="Path_1685" d="M149.7 14.633l-.067-.533a1.549 1.549 0 0 1-1.267.6 1.171 1.171 0 0 1-1.267-1.2c0-1 .933-1.6 2.533-1.533V11.9a.869.869 0 0 0-.933-1 1.845 1.845 0 0 0-1.067.333l-.2-.533a2.891 2.891 0 0 1 1.4-.4c1.267 0 1.6.867 1.6 1.733v1.6a4.721 4.721 0 0 0 .067 1h-.8zm-.067-2.133c-.8 0-1.8.133-1.8.933a.7.7 0 0 0 .733.733 1.02 1.02 0 0 0 1-.733c0-.067.067-.133.067-.267z" class="cls-2" data-name="Path 1685" transform="translate(-88.3 -8.5)"/>
                        <path id="Path_1686" d="M158.067 7.6v5.067a5.06 5.06 0 0 0 .067 1.067h-.667L157.4 13a1.545 1.545 0 0 1-1.4.8 1.93 1.93 0 0 1-1.8-2.133 2.026 2.026 0 0 1 1.867-2.267 1.408 1.408 0 0 1 1.267.667V7.6zm-.733 3.667a.725.725 0 0 0-.067-.333 1.14 1.14 0 0 0-1.067-.867c-.8 0-1.267.667-1.267 1.6 0 .867.4 1.533 1.267 1.533a1.135 1.135 0 0 0 1.133-.933c0-.133.067-.2.067-.333v-.667z" class="cls-2" data-name="Path 1686" transform="translate(-90.667 -7.6)"/>
                    </g>
                    <g id="Group_1823" data-name="Group 1823" transform="translate(.133 9.933)">
                        <path id="Path_1687" d="M61.033 23.733a.929.929 0 0 1-1 .933.933.933 0 1 1 0-1.867.929.929 0 0 1 1 .934zM59.3 34.6v-8.467h1.533V34.6z" class="cls-2" data-name="Path 1687" transform="translate(-59.1 -22.6)"/>
                        <path id="Path_1688" d="M75.4 28.5c0 4.067-2.467 6.2-5.467 6.2-3.133 0-5.333-2.4-5.333-6 0-3.733 2.333-6.2 5.467-6.2 3.266 0 5.333 2.467 5.333 6zm-9.133.2c0 2.533 1.4 4.8 3.8 4.8s3.8-2.2 3.8-4.933c0-2.333-1.2-4.8-3.8-4.8-2.534 0-3.8 2.333-3.8 4.933z" class="cls-2" data-name="Path 1688" transform="translate(-60.933 -22.5)"/>
                        <path id="Path_1689" d="M83.3 32.767a5.514 5.514 0 0 0 2.733.8c1.533 0 2.467-.8 2.467-2 0-1.133-.6-1.733-2.2-2.333-1.933-.667-3.133-1.667-3.133-3.333 0-1.867 1.533-3.2 3.8-3.2a4.963 4.963 0 0 1 2.6.6l-.4 1.267a5.077 5.077 0 0 0-2.267-.533c-1.6 0-2.2.933-2.2 1.8 0 1.133.733 1.667 2.333 2.267 2 .8 3 1.733 3 3.467 0 1.8-1.333 3.4-4.133 3.4a6.2 6.2 0 0 1-3-.733z" class="cls-2" data-name="Path 1689" transform="translate(-67.033 -22.567)"/>
                        <path id="Path_1690" d="M103.8 30.967l-1.2 3.733H101l4-11.8h1.867l4.067 11.8h-1.6l-1.267-3.733zm3.867-1.2l-1.133-3.4a17.708 17.708 0 0 1-.6-2.133h-.067c-.2.733-.4 1.4-.6 2.133l-1.133 3.4z" class="cls-2" data-name="Path 1690" transform="translate(-73.067 -22.633)"/>
                        <path id="Path_1691" d="M118.267 30.5c0-1.067-.067-1.933-.067-2.8h1.4l.067 1.467h.067a3.216 3.216 0 0 1 3-1.667c2.067 0 3.6 1.733 3.6 4.333 0 3.067-1.867 4.533-3.867 4.533a2.842 2.842 0 0 1-2.6-1.333h-.067v4.6h-1.533zm1.533 2.267c0 .2.067.467.067.6a2.364 2.364 0 0 0 2.333 1.8c1.6 0 2.6-1.333 2.6-3.267 0-1.733-.867-3.133-2.533-3.133a2.4 2.4 0 0 0-2.333 1.933 1.947 1.947 0 0 0-.133.6z" class="cls-2" data-name="Path 1691" transform="translate(-78.8 -24.167)"/>
                        <path id="Path_1692" d="M133.267 30.5c0-1.067-.067-1.933-.067-2.8h1.4l.067 1.467h.067a3.216 3.216 0 0 1 3-1.667c2.067 0 3.6 1.733 3.6 4.333 0 3.067-1.867 4.533-3.867 4.533a2.842 2.842 0 0 1-2.6-1.333h-.067v4.6h-1.533zm1.533 2.267c0 .2.067.467.067.6a2.364 2.364 0 0 0 2.333 1.8c1.6 0 2.6-1.333 2.6-3.267 0-1.733-.867-3.133-2.533-3.133a2.4 2.4 0 0 0-2.333 1.933 1.946 1.946 0 0 0-.133.6z" class="cls-2" data-name="Path 1692" transform="translate(-83.8 -24.167)"/>
                    </g>
                </g>
            </g>
        </g>
    </g>
</svg>
