<svg xmlns="http://www.w3.org/2000/svg" viewBox="0 0 14 14">
    <defs>
        <style>
            .cls-1{fill:#a7a7a7}
        </style>
    </defs>
    <path id="ic_my_location_24px_1_" d="M572 2535.955a2.545 2.545 0 1 0 2.545 2.545 2.553 2.553 0 0 0-2.545-2.545zm5.664 1.909a5.684 5.684 0 0 0-5.027-5.027v-1.337h-1.273v1.336a5.684 5.684 0 0 0-5.027 5.027H565v1.273h1.336a5.684 5.684 0 0 0 5.027 5.027v1.336h1.273v-1.336a5.684 5.684 0 0 0 5.027-5.027H579v-1.273zm-5.664 5.091a4.455 4.455 0 1 1 4.455-4.455 4.427 4.427 0 0 1-4.455 4.455z" class="cls-1" transform="translate(-565 -2531.5)"/>
</svg>
