<svg xmlns="http://www.w3.org/2000/svg" viewBox="0 0 301.134 503.759">
    <defs>
        <style>
            .cls-1{opacity:.497;fill:url(#linear-gradient)}.cls-2{fill:url(#linear-gradient-2)}.cls-3{fill:url(#linear-gradient-3)}.cls-4{fill:url(#linear-gradient-4)}.cls-5{fill:url(#linear-gradient-5)}.cls-6{fill:url(#linear-gradient-12)}.cls-7,.cls-9{fill:#f3f3f3}.cls-10,.cls-8{fill:#fff}.cls-9{stroke:#f9f8f8}.cls-10,.cls-17{stroke:#d9d9d9}.cls-11{fill:#363636}.cls-12{font-size:5px;font-family:SFProText-Medium,SF Pro Text;font-weight:500}.cls-13,.cls-14{fill-rule:evenodd}.cls-14{fill:rgba(0,0,0,.5)}.cls-15,.cls-17,.cls-19{fill:none}.cls-15{stroke:#000;opacity:.4}.cls-16{fill:rgba(255,255,255,0)}.cls-18{stroke:none}.cls-20{filter:url(#Case)}
        </style>
        <linearGradient id="linear-gradient" x1=".5" x2=".5" y2="1" gradientUnits="objectBoundingBox">
            <stop offset="0" stop-color="#f0ecec"/>
            <stop offset="1" stop-color="#e3e3e3"/>
        </linearGradient>
        <filter id="Case" width="301.134" height="503.759" x="0" y="0" filterUnits="userSpaceOnUse">
            <feOffset/>
            <feGaussianBlur result="blur" stdDeviation="17.5"/>
            <feFlood flood-opacity=".161"/>
            <feComposite in2="blur" operator="in"/>
            <feComposite in="SourceGraphic"/>
        </filter>
        <linearGradient id="linear-gradient-2" x1=".5" x2=".5" y2="1" gradientUnits="objectBoundingBox">
            <stop offset="0" stop-color="#f6f6f6"/>
            <stop offset="1" stop-color="#ececec"/>
        </linearGradient>
        <linearGradient id="linear-gradient-3" x1=".5" x2=".5" y2="1" gradientUnits="objectBoundingBox">
            <stop offset="0" stop-color="#fff"/>
            <stop offset="1" stop-color="#f3f3f3"/>
        </linearGradient>
        <linearGradient id="linear-gradient-4" x1=".5" x2=".5" y2="1" gradientUnits="objectBoundingBox">
            <stop offset="0" stop-color="#fff"/>
            <stop offset="1" stop-color="#e5e5e5"/>
        </linearGradient>
        <linearGradient id="linear-gradient-5" x1="1" x2="0" y1=".377" y2=".377" gradientUnits="objectBoundingBox">
            <stop offset="0" stop-color="#fff" stop-opacity="0"/>
            <stop offset=".322" stop-color="#fdfdfd" stop-opacity="0"/>
            <stop offset="1" stop-color="#dadada"/>
        </linearGradient>
        <linearGradient id="linear-gradient-12" x1=".5" x2=".5" y2="1" gradientUnits="objectBoundingBox">
            <stop offset="0" stop-color="#f3f3f3"/>
            <stop offset="1" stop-color="#fff"/>
        </linearGradient>
    </defs>
    <g id="Group_1828" data-name="Group 1828" transform="translate(-216.891 15.5)">
        <g id="Group_1" data-name="Group 1" transform="translate(268 37)">
            <g id="Group_2" data-name="Group 2">
                <g id="Group_43" data-name="Group 43">
                    <g id="iPhone_X_-_Light" data-name="iPhone X - Light">
                        <g class="cls-20" transform="translate(-51.11 -52.5)">
                            <path id="Case-2" d="M26.429 0H169.7a26.429 26.429 0 0 1 26.429 26.429v345.9a26.429 26.429 0 0 1-26.429 26.43H26.429A26.429 26.429 0 0 1 0 372.329v-345.9A26.429 26.429 0 0 1 26.429 0z" class="cls-1" data-name="Case" transform="translate(52.5 52.5)"/>
                        </g>
                        <path id="Bezel" d="M21.793 0h145.13a21.793 21.793 0 0 1 21.793 21.793v347.754a21.793 21.793 0 0 1-21.793 21.793H21.793A21.793 21.793 0 0 1 0 369.547V21.793A21.793 21.793 0 0 1 21.793 0z" class="cls-2" transform="translate(5.1 3.709)"/>
                        <path id="Glass" d="M20.606 0h145.648a20.553 20.553 0 0 1 20.606 20.5v348.486a20.553 20.553 0 0 1-20.606 20.5H20.606A20.553 20.553 0 0 1 0 368.986V20.5A20.553 20.553 0 0 1 20.606 0z" class="cls-3" transform="translate(6.028 4.637)"/>
                        <g id="Button" transform="translate(197.061 92.735)">
                            <g id="Group_39" data-name="Group 39">
                                <path id="Rectangle_21" d="M0 0h.318a2 2 0 0 1 2 2v40.513a2 2 0 0 1-2 2H0V0z" class="cls-4" data-name="Rectangle 21"/>
                                <path id="Rectangle_101" d="M0 0h.318a2 2 0 0 1 2 2v40.513a2 2 0 0 1-2 2H0V0z" class="cls-5" data-name="Rectangle 101"/>
                            </g>
                        </g>
                        <g id="Button-2" data-name="Button" transform="translate(0 83.461)">
                            <path id="Rectangle_28" d="M2 0h.318v27.82H2a2 2 0 0 1-2-2V2a2 2 0 0 1 2-2z" class="cls-4" data-name="Rectangle 28"/>
                            <path id="Rectangle_103" d="M0 0h.318a2 2 0 0 1 2 2v23.82a2 2 0 0 1-2 2H0V0z" class="cls-5" data-name="Rectangle 103" transform="rotate(180 1.159 13.91)"/>
                        </g>
                        <g id="Button-3" data-name="Button" transform="translate(0 119.628)">
                            <path id="Rectangle_29" d="M2 0h.318v27.82H2a2 2 0 0 1-2-2V2a2 2 0 0 1 2-2z" class="cls-4" data-name="Rectangle 29"/>
                            <path id="Rectangle_104" d="M0 0h.318a2 2 0 0 1 2 2v23.82a2 2 0 0 1-2 2H0V0z" class="cls-5" data-name="Rectangle 104" transform="rotate(180 1.159 13.91)"/>
                        </g>
                        <g id="Button-4" data-name="Button" transform="translate(0 54.25)">
                            <path id="Rectangle_31" d="M1 0h1.318v14.838H1a1 1 0 0 1-1-1V1a1 1 0 0 1 1-1z" class="cls-4" data-name="Rectangle 31"/>
                            <path id="Rectangle_149" d="M0 0h1.318a1 1 0 0 1 1 1v12.838a1 1 0 0 1-1 1H0V0z" class="cls-5" data-name="Rectangle 149" transform="rotate(180 1.159 7.419)"/>
                        </g>
                        <g id="Camera" transform="translate(119.628 11.592)">
                            <ellipse id="Ellipse_7" cx="3.477" cy="3.477" class="cls-6" data-name="Ellipse 7" rx="3.477" ry="3.477"/>
                            <circle id="Ellipse_8" cx="3.014" cy="3.014" r="3.014" class="cls-3" data-name="Ellipse 8" transform="translate(.464 .464)"/>
                            <ellipse id="Ellipse_10" cx="2.086" cy="2.086" class="cls-7" data-name="Ellipse 10" rx="2.086" ry="2.086" transform="translate(1.391 1.391)"/>
                            <ellipse id="Ellipse_9" cx=".696" cy=".464" class="cls-8" data-name="Ellipse 9" rx=".696" ry=".464" transform="translate(2.782 1.391)"/>
                        </g>
                        <path id="Ear_Piece" d="M2.123.5h25.5a1.623 1.623 0 1 1 0 3.246h-25.5a1.623 1.623 0 0 1 0-3.246z" class="cls-9" data-name="Ear Piece" transform="translate(84.584 13.178)"/>
                        <path id="Screen" d="M156.258 376.5H17.619A17.639 17.639 0 0 1 0 358.883V17.62A17.64 17.64 0 0 1 17.619 0h18.669a3.158 3.158 0 0 1 2.425 2.4c.076.335.156.775.248 1.283.178.978.4 2.191.726 3.416a8.79 8.79 0 0 0 8.591 6.829c2.374.024 17.176.03 29.176.03 22.074 0 47.4-.017 48.586-.03a8.79 8.79 0 0 0 8.593-6.828c.329-1.228.549-2.443.727-3.419.093-.511.172-.947.248-1.28a3.057 3.057 0 0 1 2.4-2.4h18.247a17.64 17.64 0 0 1 17.619 17.62v341.262a17.639 17.639 0 0 1-17.616 17.617z" class="cls-10" transform="translate(12.519 11.128)"/>
                    </g>
                </g>
                <path id="Home" d="M1.159 0h57.959a1.159 1.159 0 1 1 0 2.318H1.159a1.159 1.159 0 0 1 0-2.318z" class="cls-11" transform="translate(69.551 375.959)"/>
            </g>
            <g id="Status_Bar_-_Light" data-name="Status Bar - Light" transform="translate(20.799 12.321)">
                <text id="_9:41_AM" class="cls-12" data-name="9:41 AM" transform="translate(12.845 10.079)">
                    <tspan x="-5.245" y="0">9:41</tspan>
                </text>
                <path id="Wifi" d="M66.53 6.252a3.951 3.951 0 0 1 2.559.932l.476-.514a4.519 4.519 0 0 0-6.065 0l.475.514a3.951 3.951 0 0 1 2.556-.929zm0 1.482a2.4 2.4 0 0 1 1.538.552l.5-.544a3.122 3.122 0 0 0-4.081 0l.5.544a2.4 2.4 0 0 1 1.537-.551zm1.035 1.1a1.585 1.585 0 0 0-2.069 0l1.034 1.114 1.035-1.118z" class="cls-13" transform="translate(75.635 1.374)"/>
                <path id="Mobile-Signal" d="M5.689.233A.238.238 0 0 1 5.928 0h.705a.235.235 0 0 1 .24.233v3.982a.238.238 0 0 1-.24.233h-.705a.235.235 0 0 1-.24-.233zm-1.9 1.173a.239.239 0 0 1 .24-.236h.705a.24.24 0 0 1 .24.236v2.806a.239.239 0 0 1-.24.236h-.702a.24.24 0 0 1-.24-.236zM1.9 2.34a.238.238 0 0 1 .24-.233h.705a.234.234 0 0 1 .24.233v1.875a.238.238 0 0 1-.24.233h-.709a.234.234 0 0 1-.24-.233zM0 3.275a.237.237 0 0 1 .24-.232h.705a.234.234 0 0 1 .24.232v.941a.237.237 0 0 1-.24.232H.24A.234.234 0 0 1 0 4.216z" class="cls-13" transform="translate(129.835 6.874)"/>
                <g id="Battery" transform="translate(147.905 7.349)">
                    <path id="Tip" d="M23 3.5a.749.749 0 0 1 0 1.427z" class="cls-14" transform="translate(-14.877 -2.34)"/>
                    <rect id="Fill" width="6.06" height="2.321" rx="1" transform="translate(.774 .774)"/>
                    <g id="Outline" class="cls-15">
                        <rect width="7.736" height="3.868" class="cls-18" rx="1.934"/>
                        <rect width="6.736" height="2.868" x=".5" y=".5" class="cls-19" rx="1.434"/>
                    </g>
                </g>
                <path id="Subtraction_12" d="M162.991 17.79H0A17.776 17.776 0 0 1 17.791 0h25.092A2.755 2.755 0 0 1 45 2.091c.066.292.135.673.215 1.114.155.852.347 1.912.634 2.984a8.965 8.965 0 0 0 1.925 3.568 7.3 7.3 0 0 0 5.567 2.386c2.246.023 16.888.026 25.417.026 19.234 0 41.337-.015 42.393-.026a7.3 7.3 0 0 0 5.567-2.386 8.975 8.975 0 0 0 1.926-3.568c.287-1.072.479-2.132.634-2.983.08-.442.149-.823.215-1.114A2.665 2.665 0 0 1 131.588 0H145.2a17.776 17.776 0 0 1 17.791 17.789z" class="cls-16" data-name="Subtraction 12"/>
            </g>
        </g>
        <path id="Screen-2" d="M156.258 376.5H17.619A17.639 17.639 0 0 1 0 358.883V17.62A17.64 17.64 0 0 1 17.619 0h18.669a3.158 3.158 0 0 1 2.425 2.4c.076.335.156.775.248 1.283.178.978.4 2.191.726 3.416a8.79 8.79 0 0 0 8.591 6.829c2.374.024 17.176.03 29.176.03 22.074 0 47.4-.017 48.586-.03a8.79 8.79 0 0 0 8.593-6.828c.329-1.228.549-2.443.727-3.419.093-.511.172-.947.248-1.28a3.057 3.057 0 0 1 2.4-2.4h18.247a17.64 17.64 0 0 1 17.619 17.62v341.262a17.639 17.639 0 0 1-17.616 17.617z" class="cls-17" data-name="Screen" transform="translate(280.503 47.987)"/>
    </g>
</svg>
